<svg id="Слой_1" data-name="Слой 1" xmlns="http://www.w3.org/2000/svg" xmlns:xlink="http://www.w3.org/1999/xlink" viewBox="0 0 2284 1308">
    <defs>
        <style>.cls-1{fill:#fff;}.cls-2{fill:url(#Безымянный_градиент_15);}.cls-3{fill:url(#Безымянный_градиент_15-7);}.cls-4{fill:#0074bc;stroke:#0078c3;}.cls-4,.cls-5{stroke-miterlimit:10;}.cls-5{fill:none;stroke:#007ac5;stroke-width:4px;}</style>
        <radialGradient id="Безымянный_градиент_15" cx="1189.26" cy="513.84" r="1060" gradientUnits="userSpaceOnUse">
            <stop offset="0" stop-color="#21b0e5" />
            <stop offset="1" stop-color="#0074bd" />
        </radialGradient>
        <radialGradient id="Безымянный_градиент_15-7" cx="1060.85" cy="341.69" r="1060" gradientTransform="matrix(1, -0.05, 0.05, 1, 111.34, 174.86)" xlink:href="#Безымянный_градиент_15" />
    </defs>
    <title>Монтажная область 1</title>
    <path class="cls-1" d="M126.84,1174h18.3v65.76H127.71v-45.91l1.18,2.9-16.64,31.39h-9.77l-16.64-30.49,1.57-3.8v45.91H69.59V1174H88.36l19,35.73Z" />
    <path class="cls-1" d="M330.4,1238.63q-6.58-1.85-10-5.3a11.34,11.34,0,0,1-3.47-8.34v-36.18a11.44,11.44,0,0,1,3.47-8.37q3.47-3.48,10-5.29a70,70,0,0,1,31.63,0q6.59,1.8,10.05,5.29a11.44,11.44,0,0,1,3.47,8.37V1225a11.34,11.34,0,0,1-3.47,8.34q-3.46,3.47-10.05,5.3a69.25,69.25,0,0,1-31.63,0Zm21-10.07a6.94,6.94,0,0,0,3.27-1.94,4.52,4.52,0,0,0,1.11-3.08v-33.38a4.46,4.46,0,0,0-1.11-3,6.94,6.94,0,0,0-3.27-1.94,17.49,17.49,0,0,0-5.16-.68,17.09,17.09,0,0,0-5.13.68,7,7,0,0,0-3.23,1.94,4.46,4.46,0,0,0-1.11,3v33.38a4.52,4.52,0,0,0,1.11,3.08,7,7,0,0,0,3.23,1.94,17.09,17.09,0,0,0,5.13.68A17.49,17.49,0,0,0,351.38,1228.56Z" />
    <path class="cls-1" d="M558.21,1174h19.64v65.76H558.21Zm11.2,55.22H586.6a11.8,11.8,0,0,0,5.64-1.11,3.41,3.41,0,0,0,2-3.1v-8.82a4.39,4.39,0,0,0-.9-2.78,5.69,5.69,0,0,0-2.73-1.76,13.54,13.54,0,0,0-4.33-.61H569.41v-10.4h16.4a9.86,9.86,0,0,0,5.41-1.27,4.08,4.08,0,0,0,1.93-3.62v-7.06a3.43,3.43,0,0,0-1.93-3.09,10.76,10.76,0,0,0-5.33-1.11H569.41V1174h18.45a48.3,48.3,0,0,1,13.25,1.58,18.16,18.16,0,0,1,8.4,4.63,10.34,10.34,0,0,1,2.88,7.35v7.06a7.84,7.84,0,0,1-2,5.27,14.32,14.32,0,0,1-5.72,3.75,33.4,33.4,0,0,1-9,2,36.83,36.83,0,0,1,9.82,1.95,15.23,15.23,0,0,1,6.23,3.91,8.2,8.2,0,0,1,2.17,5.63v9a10.55,10.55,0,0,1-2.84,7.41,17.9,17.9,0,0,1-8.32,4.68,47.12,47.12,0,0,1-13.13,1.61H569.41Z" />
    <path class="cls-1" d="M1699.51,1174h13.72l27.36,65.76h-19.4l-14.82-43.1-14.83,43.1h-19.4Zm-8.76,45H1722v10.5h-31.23Z" />
    <path class="cls-1" d="M1915.17,1174h19.56v65.76h-19.56Zm9.15,29.48h20.27a12.06,12.06,0,0,0,4.1-.63,5.84,5.84,0,0,0,2.68-1.85,4.61,4.61,0,0,0,.94-2.9v-7.73a5.08,5.08,0,0,0-.9-3,5.52,5.52,0,0,0-2.64-1.92,11.83,11.83,0,0,0-4.18-.66h-20.27V1174h20.82a54.35,54.35,0,0,1,14.59,1.71,19.91,19.91,0,0,1,9.22,5,11.2,11.2,0,0,1,3.16,8v11.08a10.68,10.68,0,0,1-3.2,7.8,20.44,20.44,0,0,1-9.26,4.93,54.47,54.47,0,0,1-14.51,1.7h-20.82Z" />
    <path class="cls-1" d="M2152.25,1174h19.55v65.76h-19.55Zm9.15,29.48h20.26a12,12,0,0,0,4.1-.63,5.79,5.79,0,0,0,2.68-1.85,4.61,4.61,0,0,0,.95-2.9v-7.73a5,5,0,0,0-.91-3,5.42,5.42,0,0,0-2.64-1.92,11.79,11.79,0,0,0-4.18-.66H2161.4V1174h20.81a54.35,54.35,0,0,1,14.59,1.71,20,20,0,0,1,9.23,5,11.19,11.19,0,0,1,3.15,8v11.08a10.67,10.67,0,0,1-3.19,7.8,20.48,20.48,0,0,1-9.27,4.93,54.42,54.42,0,0,1-14.51,1.7H2161.4Z" />
    <path class="cls-1" d="M833.69,1239.78H814.14V1174h19.55Z" />
    <path class="cls-1" d="M1040.05,1174h19.56v65.76h-19.56Zm8,55h41.32v10.77H1048.1Z" />
    <path class="cls-1" d="M1278.12,1174h19.55v65.76h-19.55Zm8.67,0h42.27V1185h-42.27Zm0,27.63h38.32v10.9h-38.32Zm0,27.18h42.27v11h-42.27Z" />
    <path class="cls-2" d="M587.88,356.11,578.11,337a8.49,8.49,0,0,1-.93-3.8l-.47-70.83a8.48,8.48,0,0,0-1.06-4L563.89,237a8.43,8.43,0,0,1-.93-2.66c-1.08-6.21-5.89-31.48-13.77-37.61-9-7-24-23.5-34-25.5S494.07,171,489.44,168s-4.62-6.87-10.25-8.25-36.25-9.62-36.62-9.62-6.7,1.63-10,2.49a8.41,8.41,0,0,1-4,.05c-6.7-1.52-28-6.54-30.61-9.17-3.12-3.12-16.75-16.25-33.25-23.5-11.57-5.08-16.87-7-19-7.64a7.88,7.88,0,0,0-2.25-.39l-10.74-.39a8.41,8.41,0,0,1-4.16-1.27l-9.12-5.65a8.4,8.4,0,0,0-3.22-1.18,198.74,198.74,0,0,0-21.85-2.12,8.49,8.49,0,0,0-6.65,14c10.43,12.12,28.51,26.24,37.67,33.87,12,10,17.66,11.34,17.66,36v21.88a8.54,8.54,0,0,1-2.31,5.82,14.7,14.7,0,0,0-4,8.64c-.67,7,3,43,2,43.33S330,266.54,330,271.2v4.67s.67,130.33.67,133,3.67,4.67,3.67,7.33c0,2.3.74,46.2.95,58.28a8.44,8.44,0,0,0,2,5.38h0a8.46,8.46,0,0,1,2,5.43l.59,56.14a8.51,8.51,0,0,0,2.87,6.27l2.77,2.45a8.46,8.46,0,0,1,2.85,6.77c-.52,10.64-1.49,39.14,2.55,47,5,9.67,25,39.33,25,46s-2,40-3.66,52-11.34,59.67-6.67,74S377,796.2,379,804.54s3,15.66,7,19.66,7.67,9,4,12.67c-2.62,2.63-14,6.93-20.28,9.15a8.46,8.46,0,0,0-5.32,5.72l-.61,2.21a8.43,8.43,0,0,0,.76,6.39c2.25,4,6,11.36,6.95,16.2,1.34,7-1.16,28-6,37s-17.66,21.16-18.16,23.83.66,7,5,8,34.52-2.33,39.18-6.17,12.32-8,20-4.83,8.67,8,14.67,7.17,6.67-7.17,17.33-8.5,53.67-4.34,74.17-34.84c17.7-26.33,19-66.44,19-76.92a8.42,8.42,0,0,1,1.49-4.78l2.57-3.74a8.54,8.54,0,0,0,1.49-4.56l1.61-54.58a8.5,8.5,0,0,1,1-3.84L551,738.7a8.51,8.51,0,0,0,1-4.52c-1.08-21-8.34-172.42,5.62-185,15-13.5,25.5-32.5,21-52.5s0-38.5,7.5-47c6.85-7.76,3.28-78,2.6-90.2A8.35,8.35,0,0,0,587.88,356.11Zm-68.19,79.76c0,9.41-4.67,22.46-5.77,25.4a9.39,9.39,0,0,1-.51,1.12L510,468.54c-3,5.46-4.89,19.2-5.47,24a8.54,8.54,0,0,1-1.06,3.18C500.25,501.36,489,521,489,521.87s-1.66,115.67-1.66,128.67S483.69,688.2,482,696.2s-18,32.34-19.66,54S450,797.87,440.69,814.54c-8,14.33-11.12,2.78-11.83-.74a8.83,8.83,0,0,1-.17-1.7L430,502.22a8.53,8.53,0,0,0-1.88-5.37l-3.22-4a8.48,8.48,0,0,1-1.89-5.33v-6c0-9-10.33-33-13.33-41.34s-1.33-140.33-1.33-140.33c.05-4.73,4.65-4.59,6.18-4.41a9.28,9.28,0,0,0,1.29.05c3.68-.12,19-.56,29.53,0,12,.66,23.33,11,27,16s7.33,13.33,20.33,23c11.62,8.63,24,43.34,26.54,50.64a8.37,8.37,0,0,1,.46,2.76Z" />
    <path class="cls-2" d="M575.05,116s11.58,16,20.05,16h5.34s-.44,7.58,14.7,11.58,20.49,5.79,22.27,37.87c1.7,30.47,7.81,143,8.42,154.13a1.73,1.73,0,0,0,.8,1.37l5.89,3.83a1.77,1.77,0,0,1,0,2.95l-5.84,3.79a1.78,1.78,0,0,0-.8,1.49L648.55,700s-15.15,16-11.14,34.74,8.91,25.4,8.91,25.4v10.69l-8.46,7.12s-1.34,104.68-5.79,110.47-21.83,16.49-28.51,28.07S590.64,932,590.64,932s14.26,15.14,20.05,13.36,14.7-14.25,25.39-16.93,84.19-1.78,86.86-.89,6.24-3.11,14.25-3.56,26.73,3.56,26.73,3.56l-2.67-28.5s-52.57-24.06-57-44.55-5.35-34.74,7.13-40.09c3.12-22.72,4.9-64.14,4.9-64.14s-13.81-24.5-12.48-42.77c-2.67-24.94-10.69-33-6.68-43.21s15.59-18.26,15.59-18.26l.89-36.53s-3.56-.89-4.45-13.36-11.58-75.28,10.69-89.09a328.31,328.31,0,0,0-10.24-51.67s2.67-130.07,2.22-171.5-2.22-66.37-2.22-66.37,14.25-6.24,11.58-20.94-8.91-12.47-8.91-12.47-6.68-33.85,43.21-49l.89-16.93-12.47-16.92s-9.36,5.34-41.88,5.34-115.37-3.56-115.37-3.56Z" />
    <path class="cls-2" d="M1782.18,102.91a1.22,1.22,0,0,0-1.72,1.5c26.14,68.31,47,73.6,72.22,156.22,25.57,83.86,42.25,166.31,34.47,233.4s0,183.08,1.11,201.25-11.12,12.58-14.46,65.68,8.9,131.38,0,157.93-14.45,41.93-10,47.52l4.28,5.38a1.26,1.26,0,0,0,.4.33c2.4,1.18,22.27,10.36,43.13-.12,22.24-11.18,29.81-23.76,62.16-12.58s128-10.5,170.23,16.88,73.75,40.89,79.68,40.42-3.33-54-1.85-70.81,47.81-86.65,41.51-89.44-48.92,11.64-70.42,5.12-109.34-12.11-132.32-15.37-50.77-2.33-55.59-8.85S1986.63,876,1973.77,876s-21-7-17.32-20a62.08,62.08,0,0,1,11.73-21.78,1.19,1.19,0,0,0,.17-1.29c-2.8-5.95-22.35-48.38-23.39-74.76-1.11-28.42,15.57-57.77,12.24-93.17s3-40.53-1.86-64.29-13.71-36.8-9.63-51.25-1.49-107.14-.75-135.1,15.94-83.38,5.56-117.86-14.45-29.81-20.38-48.91,12.6-39.14-10.75-47.52-52.63-49.38-70.42-59.63C1833.7,131.64,1793.33,109.13,1782.18,102.91Z" />
    <path class="cls-2" d="M864.26,944.9c8.8-2.2,37.36,3.31,43.43-2s22.2-34,14.53-80.52-2.23-145,.3-155.43-1.17-38.17-6.21-44.93-15.25-12-14.75-28.87,2.5-61.41,2.5-61.41l-5-27.73s6.5-93.11,8-93.11,6.5-5.94,6.5-5.94,36,93.6,40,99.54,7.5,4.38,15,17.54,31,68.63,31,68.63v10.4s16.5,42.1,22,51.51,7,23.28,11.5,29.22,10.3,30,19.82,40.33,9.18,4.3,13.68,15.17-6.49,20.51-6.49,20.51l-7,18.09,10.73,15.59s41.27-8,48.77-8.8,35.82-8.2,36-20.13-3.82-105.07,0-118.89,9.46-47.55,6.72-78.75.72-35.66.72-35.66V458.84l4.54-23.27V386l5-6.93s-11.68-39.62-6.59-63.89-3.59-99.61-3.64-109,0-10.85,0-10.85l3.66-15.21s-6.94-13.53,6.56-14.52,18.79,1,18.79,1l30.21-9s-14.93-18.9-12.5-30.7-2.5-25.75-2.5-25.75-66.09,8.44-73.57,8.73-20.93,5.63-20.93,5.63l-22.2.16s-24.3,22.12-22.8,28.07,14.5,25.26,15,29.22,13.28,10.89,15.64,23.27,2.64,113.42,0,116.39,0,49.52,0,49.52-8.27,13-8.45,14.45-.19,52.41-.19,52.41-6.84,6.27-7.67,19.73,8.17,20.38,8.17,30.29-1,56.46-1,56.46,14,25.75,14.5,29.22,5.49,22.7-11.51,26.45-34.59-41.52-34.29-60.48-22.2-59.08-26.7-86.81-33.5-65.87-33.5-65.87l-14.5-10.4-17.39-80.89-13.11-20.64-10-47s-8.5-7.43-10-8.92-6.83-43.53-6.83-43.53l-43.69-45.28L833.06,129v29.72s-19,10.4-19.5,26.74,17.5,46.06,17.5,46.06l-.5,61.9-10,12.88-1,158.48s18.67,8,17,32.19-1,64.38,4.5,87.66-18.73,99.61-12,127.77,14.72,68.29,3.86,82.46L822.05,809s-44.49,38.08-44.49,41.54,8.7,31,8.7,31,32.3,3.17,41.3,9.11,12.5,33.18,12.5,33.18Z" />
    <path class="cls-2" d="M1192.06,1046.24l-60-36.2-2-41.38-18-3.52s-9.42-73.9-37.71-80.88-34.29-9.92-34.29-9.92l26.11-10.74,131.21-5.3s-7.32,66.81,17.18,66.81,45.5-13,45.5,1.33S1280.53,986,1280.53,986l17.53,26s30.87-8.94,52.7-14.92,52.92-17.47,62.87-61.93,4.43-70.57,19.43-94-5-96.65-5-96.65-88-41-95-65.41-12-57.6-44-84-90-83-92-145.47-3-123-3-123l20.5-41V229s5.5,4.88,24.5-10.74,13.34-39.05,13.34-39.05,40.07-37.44,65.66-45.88,80-32,80-32l95.75,4.5,29,27.32,12.24,41.22,11,8.2,13,23.86s33.52,9.81,41,36.78,0,90.29,0,90.29l8,14.65-16.14,57.6s-55,32.22-61,51.74,10.22,40.83,10.22,40.83,9.88,36.38-23.67,39.27c-23.55-26.4-17.55-45-46.55-54.72s-55-43-55-43,39-26.53,36.9-43.94a83.25,83.25,0,0,1,2.5-31.71s46.6-1.48,59.6-35.65-28-74.19-28-74.19h-32.33a33.08,33.08,0,0,0-27.67-14.65c-19,0-70,7.81-84,32.22s-49,74.2-49,74.2l1,93.72,42.13,32.62v21.07s33.87,17.7,41.87,40.09,109,76.64,109,76.64a321.34,321.34,0,0,1,37.54,39.06h0c47.46,45.33,83.75,111.71,82.6,121.48s0,72.24,0,72.24l-13.14,37.1s10.34,1.95,13.17,25.38-30.56,56.63-30.56,56.63l-9.4,60.53-19.6,15.62-13,27.33s-68.61,24.41-91.61,34.17-100,28.31-100,28.31-21.53-21-66.77-24.65S1192.06,1046.24,1192.06,1046.24Z" />
    <path class="cls-2" d="M2228.66,306.59s-7-17.37-6-56.18-45-122.58-45-122.58-28-13.27-47-13.27-23-13.28-23-13.28h-25s-37,6.13-45,21.45-34,38.81-34,38.81v38.82l-5,9.19V382.17l5,12.26v47s15,52.09,17,88.46,21,76,21,76,12,74.57,9,109.3,21,50.05,24,54.13,21,45,21,45,6,6.12,37,5.1,53-50.05,57-68.43,27-44.95,27-44.95l4-63.33s-5-30.64-5-35.75,0-113.38,1-120.53-5-75.59,6-89.89S2228.66,306.59,2228.66,306.59Zm-49,137.89-13,46V596.68l-11,24.51-7,67.42-14,12.26s-8,25.53-16,24.51-32.5-30.64-32.5-30.64V614l-7.5-42.9V400.56l-15-22.47v-71.5s0-36.77,11-40.86,34-25.54,34-25.54l34,21.45,17,46s0,57.2,12,81.71S2179.66,444.48,2179.66,444.48Z" />
    <path class="cls-3" d="M312.62,601.65,312,557.74l-8.12-25.39L301,377.93s11.81-35.22,9.9-65.6S295,208.65,295,208.65l-15.65-28.22-1.93-35.56s-66.66-50.32-104.51-43.41S108,137.52,108,137.52s-6.63,36.79-36.36,74.1S45.49,326.1,50.76,334.92s-20.6,63.44-20.6,63.44l3.52,76.71,9,32.92L45.1,559.4l14.86,16s-7.35,97.45-8.06,117.18-16,70.25,7.17,95.8,27.56,93.42,27.56,93.42l27.85,40.62,15.24,13.43L161.45,933l10.42,13.3c15-1.88,51.28-11.93,51.28-11.93s66.73-62.18,68.45-65.6,20.89-61.74,32-89.93.49-159.52.49-159.52ZM262,435.31a23.49,23.49,0,0,0-1.82,9.91L257.77,471l-8.66,12.56,7.62,85.59c.08.85.12,1.71.15,2.57.44,14.42-3.38,28.73-.67,42.63,1.77,9.09,8.89,20.46,8.81,31.16-.18,23.1-13.5,32.51-34.47,63.74l-8,21.72,1.9,9.85c6.56,34-4.93,70.26-27.31,83.76-4.73,2.86-9.49,4.34-14,3.56-21.48-3.79-37.54-24.63-37.54-24.63a159.67,159.67,0,0,0-22.63-54.2c-17.82-26.86-3.24-83-.54-89.77s-.4-55.1-.4-55.1l-.29-57.62,4.11-25-.19-38.62,7.88-12.52s-14.32-68.87-15.3-83.63-8.14-34,4.15-54c10.24-16.67,9.9-51.9,10.48-57.15a10.27,10.27,0,0,1,.84-3.1l13.39-29.16a7.73,7.73,0,0,1,.9-1.51l3.61-4.7c2.24-2.91,5.68-2.65,7.71.58l10.89,17.27c2.3,3.66,6.32,3.42,8.39-.5a5.46,5.46,0,0,1,3.27-3c4.66-1.17,10.63,1.37,15.41,4.18,6.7,3.94,1.41,23.92,8.59,25.18,10,1.75,17,8.21,17.6,9.69,1.06,2.49,1.72,50.58,13.75,65.76,7.15,9,17.47,43.3,24.68,60.29A24.14,24.14,0,0,1,262,435.31Z" />
    <path class="cls-2" d="M1774.15,969.91,1785.67,948l33.59-7.21V919.41a9.48,9.48,0,0,1,1.84-5.68,15.88,15.88,0,0,0,3.17-8.42c.53-6.83-2.37-41.94-1.58-42.27s6.86-1.63,6.86-6.18v-4.55s-.35-84.91-.48-117.36c1.87-5.68,4-11.52,6-16.74,0-38.08.26-106.1,1-112.08.66-5-1.48-35.78-.58-62.82l-10.09-15s9.08-93.77,10.32-112.79,14.79-67.12-2.12-92.82c-12-18.24-16-56.64-17.25-77.4-3.62-8.48-7.18-16.36-10.36-23.18,4.36-6.76,9.54-13.25,9.82-15.09.39-2.6-.53-6.83-4-7.81-1.79-.5-9.12.14-16.26,1.39l-1.51-3s-30.15-15.12-50.6-15.12c-12.83,0-19.3-5.95-22.35-10.39-4.91,1.33-8.31,2.3-8.31,2.3s-53.4,57.08-54.84,60.3-18.21,58.69-27.75,85.42-6,154-6,154l8.2,17.56-1.07,42.43,5.34,24.88-1,48.95a54.09,54.09,0,0,0-2.86,28.88c3.56,19.51,0,37.56-5.94,45.85-5.41,7.57-2.59,76.1-2.05,88a9.9,9.9,0,0,0,.72,3.31l7.73,18.65a9.86,9.86,0,0,1,.74,3.71l.37,69.09a9.86,9.86,0,0,0,.83,3.94l9.31,20.82a9.5,9.5,0,0,1,.73,2.59c.86,6.07,4.67,30.72,10.9,36.69,7.12,6.83,19,22.93,26.9,24.88,4.26,1.05,8.78,1,12.61,1.26,4.59,10.68,8.88,20.93,9.92,23.42C1711.42,981,1717,981.8,1722,981a67.72,67.72,0,0,0,18.2-6l.29.08c.22,0,5.3-1.59,7.94-2.43a5.37,5.37,0,0,1,3.15-.05Zm-99.78-347.22c5.75-10.29,2.62-59.51,3.14-64.65s.52-83,.52-86.69-2.61-25.71-2.61-25.71l2.09-45.55s12-19.1,14.11-32.32,13.59-48.48,29.79-49.22,19.33,3.67,19.33,3.67.55,1.72,1.4,4.35c6.24-13.49,8.66-2.38,9.22,1a10.23,10.23,0,0,1,.13,1.66l-.09,24.61c.13.29.23.53.32.69,1.57,2.94,14.11,14,12.54,38.93s4.7,78.61,4.7,78.61,9.93,28.49,11,54.65,8.88,63.62,8.88,63.62v33.8l2.61,8.81V757.12l-2.61,6.62v27.91s-13.59,16.9-17.77,27.92c-1.31,3.45-4.1,6.25-7.33,8.48l-.51,5.2-.52,0a5.93,5.93,0,0,0-1-.05c-1.36.06-4.73.18-8.79.24a52,52,0,0,1-5.33,1.6h-13.07a13.33,13.33,0,0,0-1.2-3,31.45,31.45,0,0,1-9.7-6.45c-.36,0-.73,0-1.12,0-9.93,0-24.56-9.55-24.56-9.55s-24-60.24-23.52-88.15-3.13-40.41-3.13-40.41S1668.63,633,1674.37,622.69Z" />
    <path class="cls-4" d="M2218.2,73.29h5v35.53h-5Zm3.08,17.24h9.3a11.35,11.35,0,0,0,3.86-.59,5.11,5.11,0,0,0,2.45-1.72,4.37,4.37,0,0,0,.85-2.72V81.84a4.74,4.74,0,0,0-.85-2.85,5.17,5.17,0,0,0-2.45-1.8,10.62,10.62,0,0,0-3.86-.63h-9.3V73.29h9a21.53,21.53,0,0,1,6.74.94,9,9,0,0,1,4.27,2.76,6.72,6.72,0,0,1,1.47,4.36V85.5a7,7,0,0,1-1.47,4.48,9.06,9.06,0,0,1-4.27,2.84,20.36,20.36,0,0,1-6.74,1h-9Zm10.41,2.17,4.42-1.12,8,17.24h-5.78Z" />
    <rect class="cls-5" x="2202.29" y="64.42" width="55" height="53" rx="18" ry="18" />
</svg>